<svg xmlns="http://www.w3.org/2000/svg" viewBox="0 0 64 64">
  <!-- Background shield -->
  <path d="M32 4 L56 16 L56 32 C56 48 42 56 32 60 C22 56 8 48 8 32 L8 16 Z" fill="#2c3e50" />
  
  <!-- Inner shield gradient -->
  <path d="M32 8 L52 18 L52 32 C52 46 40 52 32 56 C24 52 12 46 12 32 L12 18 Z" fill="#3498db" />
  
  <!-- Network nodes representing multi-agent system -->
  <circle cx="24" cy="28" r="3" fill="#ecf0f1" />
  <circle cx="40" cy="28" r="3" fill="#ecf0f1" />
  <circle cx="32" cy="38" r="3" fill="#ecf0f1" />
  <circle cx="24" cy="48" r="3" fill="#ecf0f1" />
  <circle cx="40" cy="48" r="3" fill="#ecf0f1" />
  
  <!-- Connection lines between nodes -->
  <line x1="24" y1="28" x2="40" y2="28" stroke="#ecf0f1" stroke-width="1.5" />
  <line x1="24" y1="28" x2="32" y2="38" stroke="#ecf0f1" stroke-width="1.5" />
  <line x1="40" y1="28" x2="32" y2="38" stroke="#ecf0f1" stroke-width="1.5" />
  <line x1="24" y1="48" x2="32" y2="38" stroke="#ecf0f1" stroke-width="1.5" />
  <line x1="40" y1="48" x2="32" y2="38" stroke="#ecf0f1" stroke-width="1.5" />
  <line x1="24" y1="48" x2="40" y2="48" stroke="#ecf0f1" stroke-width="1.5" />
  
  <!-- Lock symbol representing security -->
  <rect x="27" y="19" width="10" height="8" rx="2" ry="2" fill="#f1c40f" />
  <rect x="29" y="15" width="6" height="6" rx="3" ry="3" fill="none" stroke="#f1c40f" stroke-width="2" />
  
  <!-- Graduation cap representing education -->
  <path d="M32 12 L42 16 L32 20 L22 16 Z" fill="#e74c3c" />
  <rect x="31" y="20" width="2" height="4" fill="#e74c3c" />
</svg>
